<?xml version="1.0" encoding="utf-8"?>
<!-- Generator: Adobe Illustrator 18.0.0, SVG Export Plug-In . SVG Version: 6.00 Build 0)  -->
<!DOCTYPE svg PUBLIC "-//W3C//DTD SVG 1.1//EN" "http://www.w3.org/Graphics/SVG/1.1/DTD/svg11.dtd">
<svg version="1.1" id="Calque_1" xmlns="http://www.w3.org/2000/svg" xmlns:xlink="http://www.w3.org/1999/xlink" x="0px" y="0px"
	 viewBox="0 0 841.9 595.3" enable-background="new 0 0 841.9 595.3" xml:space="preserve">
<rect x="66.1" y="43.6" fill="#FFFFFF" stroke="#000000" stroke-width="3" stroke-miterlimit="10" width="726.3" height="105.6"/>
<rect x="13.2" y="156" fill="#FFFFFF" stroke="#000000" stroke-width="3" stroke-miterlimit="10" width="327.3" height="412.1"/>
<rect x="391.7" y="156.5" fill="#FFFFFF" stroke="#000000" stroke-width="3" stroke-miterlimit="10" width="361" height="412.1"/>
<rect x="71.1" y="49.7" fill="none" width="139.4" height="35.4"/>
<text transform="matrix(1 0 0 1 71.1111 62.4665)" font-family="'MyriadPro-Regular'" font-size="18">Interface</text>
<rect x="19.3" y="163.5" fill="none" width="139.4" height="35.4"/>
<text transform="matrix(1 0 0 1 19.2604 176.3287)" font-family="'MyriadPro-Regular'" font-size="18">Régie Audio</text>
<rect x="399.4" y="163.5" fill="none" width="139.4" height="35.4"/>
<text transform="matrix(1 0 0 1 399.3973 176.3287)" font-family="'MyriadPro-Regular'" font-size="18">Régie Vidéo</text>
<rect x="94.3" y="67.4" fill="none" stroke="#000000" stroke-width="2" stroke-miterlimit="10" width="668.7" height="23.7"/>
<rect x="94.3" y="114.8" fill="none" stroke="#000000" stroke-width="2" stroke-miterlimit="10" width="668.7" height="23.7"/>
<rect x="42.5" y="213" fill="none" stroke="#000000" stroke-width="2" stroke-miterlimit="10" width="163.6" height="23.7"/>
<rect x="350.2" y="72.4" fill="none" width="141.4" height="25.3"/>
<text transform="matrix(1 0 0 1 395.2135 82.354)" font-family="'MyriadPro-Regular'" font-size="14">Interface</text>
<rect x="350.2" y="121.9" fill="none" width="141.4" height="25.3"/>
<text transform="matrix(1 0 0 1 390.9503 131.849)" font-family="'MyriadPro-Regular'" font-size="14">Envoi OSC</text>
<rect x="53.6" y="218.6" fill="none" width="141.4" height="25.3"/>
<text transform="matrix(1 0 0 1 80.9114 228.5395)" font-family="'MyriadPro-Regular'" font-size="14">Reception OSC</text>
<rect x="442.3" y="203.2" fill="none" stroke="#000000" stroke-width="2" stroke-miterlimit="10" width="163.6" height="23.7"/>
<rect x="453.4" y="208.8" fill="none" width="141.4" height="25.3"/>
<text transform="matrix(1 0 0 1 480.7453 218.7043)" font-family="'MyriadPro-Regular'" font-size="14">Reception OSC</text>
<rect x="28.4" y="282.7" fill="none" stroke="#000000" stroke-width="2" stroke-miterlimit="10" width="92.9" height="23.7"/>
<rect x="4.1" y="288.3" fill="none" width="141.4" height="25.3"/>
<text transform="matrix(1 0 0 1 39.6982 296.8165)" font-family="'MyriadPro-Regular'" font-size="12">Lecteur Audio</text>
<rect x="25.8" y="238" fill="none" width="98" height="12.6"/>
<text transform="matrix(1 0 0 1 50.3214 245.1174)" font-family="'MyriadPro-Regular'" font-size="10">Commande</text>
<rect x="25.8" y="313.5" fill="none" width="98" height="12.6"/>
<text transform="matrix(1 0 0 1 50.3214 320.6491)" font-family="'MyriadPro-Regular'" font-size="10">Commande</text>
<rect x="25.8" y="384" fill="none" width="98" height="12.6"/>
<text transform="matrix(1 0 0 1 50.3214 391.117)" font-family="'MyriadPro-Regular'" font-size="10">Commande</text>
<rect x="25.8" y="461.5" fill="none" width="98" height="12.6"/>
<text transform="matrix(1 0 0 1 50.3214 468.6289)" font-family="'MyriadPro-Regular'" font-size="10">Commande</text>
<rect x="234.2" y="220.6" fill="none" width="98" height="12.6"/>
<text transform="matrix(1 0 0 1 258.7411 227.7065)" font-family="'MyriadPro-Regular'" font-size="10">Commande</text>
<rect x="647.4" y="218.6" fill="none" width="98" height="12.6"/>
<text transform="matrix(1 0 0 1 671.8724 225.673)" font-family="'MyriadPro-Regular'" font-size="10">Commande</text>
<rect x="28.4" y="353.2" fill="none" stroke="#000000" stroke-width="2" stroke-miterlimit="10" width="92.9" height="23.7"/>
<rect x="4.1" y="358.8" fill="none" width="141.4" height="25.3"/>
<text transform="matrix(1 0 0 1 39.6982 367.2844)" font-family="'MyriadPro-Regular'" font-size="12">Lecteur Audio</text>
<rect x="194.1" y="446" fill="none" stroke="#000000" stroke-width="2" stroke-miterlimit="10" width="33.2" height="38.6"/>
<rect x="157.3" y="455.1" fill="none" width="110.4" height="25.3"/>
<text transform="matrix(0.781 0 0 1 203.5048 462.1972)"><tspan x="0" y="0" font-family="'MyriadPro-Regular'" font-size="10">Envoi</tspan><tspan x="-2.2" y="12" font-family="'MyriadPro-Regular'" font-size="10">réseau</tspan></text>
<rect x="28.4" y="428.4" fill="none" stroke="#000000" stroke-width="2" stroke-miterlimit="10" width="92.9" height="23.7"/>
<rect x="4.1" y="434" fill="none" width="141.4" height="25.3"/>
<text transform="matrix(1 0 0 1 39.6982 442.5503)" font-family="'MyriadPro-Regular'" font-size="12">Lecteur Audio</text>
<rect x="28.4" y="505.2" fill="none" stroke="#000000" stroke-width="2" stroke-miterlimit="10" width="92.9" height="23.7"/>
<rect x="4.1" y="510.8" fill="none" width="141.4" height="25.3"/>
<text transform="matrix(1 0 0 1 36.4462 519.3179)" font-family="'MyriadPro-Regular'" font-size="12">Synthèse audio</text>
<rect x="767.1" y="349.8" fill="none" stroke="#000000" stroke-width="2" stroke-miterlimit="10" width="72.1" height="23.7"/>
<rect x="655" y="262.5" fill="none" stroke="#000000" stroke-width="2" stroke-miterlimit="10" width="82.8" height="294.4"/>
<rect x="241.8" y="262.5" fill="none" stroke="#000000" stroke-width="2" stroke-miterlimit="10" width="82.8" height="294.4"/>
<rect x="451.5" y="262.5" fill="none" stroke="#000000" stroke-width="2" stroke-miterlimit="10" width="82.8" height="294.4"/>
<rect x="735.1" y="355.1" fill="none" width="141.4" height="25.3"/>
<text transform="matrix(1 0 0 1 778.0178 365.016)" font-family="'MyriadPro-Regular'" font-size="14">Affichage</text>
<rect x="350.3" y="420.6" fill="none" stroke="#000000" stroke-width="2" stroke-miterlimit="10" width="32.8" height="23.7"/>
<rect x="346.5" y="427.7" fill="none" width="40.4" height="25.3"/>
<text transform="matrix(1 0 0 1 358.392 437.6304)" font-family="'MyriadPro-Regular'" font-size="14">HP</text>
<rect x="633.2" y="408" fill="none" width="141.4" height="25.3"/>
<text transform="matrix(1 0 0 1 682.6419 417.9334)" font-family="'MyriadPro-Regular'" font-size="14">Mixage</text>
<rect x="408.2" y="407.2" fill="none" width="141.4" height="25.3"/>
<text transform="matrix(1 0 0 1 454.3609 417.1758)" font-family="'MyriadPro-Regular'" font-size="14">Routage</text>
<rect x="212.5" y="409.8" fill="none" width="141.4" height="25.3"/>
<text transform="matrix(1 0 0 1 261.9348 419.7011)" font-family="'MyriadPro-Regular'" font-size="14">Mixage</text>
<g>
	<g>
		<line fill="none" stroke="#95C11F" stroke-miterlimit="10" x1="74.8" y1="326.4" x2="74.8" y2="346.6"/>
		<g>
			<path fill="#95C11F" d="M74.8,352.7c-1.1-2.8-2.9-6.4-4.8-8.5l4.8,1.7l4.8-1.7C77.7,346.3,75.9,349.8,74.8,352.7z"/>
		</g>
	</g>
</g>
<g>
	<g>
		<line fill="none" stroke="#95C11F" stroke-miterlimit="10" x1="74.8" y1="249.4" x2="74.8" y2="269.6"/>
		<g>
			<path fill="#95C11F" d="M74.8,275.6c-1.1-2.8-2.9-6.4-4.8-8.5l4.8,1.7l4.8-1.7C77.7,269.3,75.9,272.8,74.8,275.6z"/>
		</g>
	</g>
</g>
<g>
	<g>
		<line fill="none" stroke="#95C11F" stroke-miterlimit="10" x1="283.2" y1="231.2" x2="283.2" y2="251.4"/>
		<g>
			<path fill="#95C11F" d="M283.2,257.5c-1.1-2.8-2.9-6.4-4.8-8.5l4.8,1.7l4.8-1.7C286.1,251.1,284.3,254.6,283.2,257.5z"/>
		</g>
	</g>
</g>
<g>
	<g>
		<line fill="none" stroke="#000000" stroke-miterlimit="10" x1="420.9" y1="91.1" x2="420.9" y2="104.3"/>
		<g>
			<path d="M420.9,110.3c-1.1-2.8-2.9-6.4-4.8-8.5l4.8,1.7l4.8-1.7C423.8,103.9,422,107.5,420.9,110.3z"/>
		</g>
	</g>
</g>
<g>
	<g>
		<line fill="none" stroke="#95C11F" stroke-miterlimit="10" x1="696.4" y1="231.2" x2="696.4" y2="251.4"/>
		<g>
			<path fill="#95C11F" d="M696.4,257.5c-1.1-2.8-2.9-6.4-4.8-8.5l4.8,1.7l4.8-1.7C699.2,251.1,697.4,254.6,696.4,257.5z"/>
		</g>
	</g>
</g>
<rect x="584.2" y="201.9" fill="none" width="98" height="12.6"/>
<text transform="matrix(1 0 0 1 608.7411 209.0463)" font-family="'MyriadPro-Regular'" font-size="10">Commande</text>
<g>
	<g>
		<line fill="none" stroke="#95C11F" stroke-miterlimit="10" x1="633.2" y1="214.6" x2="633.2" y2="234.8"/>
		<g>
			<path fill="#95C11F" d="M633.2,240.8c-1.1-2.8-2.9-6.4-4.8-8.5l4.8,1.7l4.8-1.7C636.1,234.5,634.3,238,633.2,240.8z"/>
		</g>
	</g>
</g>
<g>
	<g>
		<line fill="none" stroke="#95C11F" stroke-miterlimit="10" x1="533.4" y1="129.2" x2="533.4" y2="192.9"/>
		<g>
			<path fill="#95C11F" d="M533.4,198.9c-1.1-2.8-2.9-6.4-4.8-8.5l4.8,1.7l4.8-1.7C536.3,192.5,534.5,196.1,533.4,198.9z"/>
		</g>
	</g>
</g>
<g>
	<g>
		<line fill="none" stroke="#95C11F" stroke-miterlimit="10" x1="167.7" y1="129.2" x2="167.7" y2="202.7"/>
		<g>
			<path fill="#95C11F" d="M167.7,208.8c-1.1-2.8-2.9-6.4-4.8-8.5l4.8,1.7l4.8-1.7C170.6,202.4,168.8,205.9,167.7,208.8z"/>
		</g>
	</g>
</g>
<g>
	<g>
		<line fill="none" stroke="#E30613" stroke-miterlimit="10" x1="121.3" y1="442.4" x2="235.8" y2="442.4"/>
		<g>
			<path fill="#E30613" d="M241.8,442.4c-2.8,1.1-6.4,2.9-8.5,4.8l1.7-4.8l-1.7-4.8C235.5,439.6,239,441.4,241.8,442.4z"/>
		</g>
	</g>
</g>
<g>
	<g>
		<line fill="none" stroke="#E30613" stroke-miterlimit="10" x1="227.3" y1="465.3" x2="445.5" y2="465.3"/>
		<g>
			<path fill="#E30613" d="M451.5,465.3c-2.8,1.1-6.4,2.9-8.5,4.8l1.7-4.8l-1.7-4.8C445.2,462.5,448.7,464.3,451.5,465.3z"/>
		</g>
	</g>
</g>
<g>
	<g>
		<line fill="none" stroke="#95C11F" stroke-miterlimit="10" x1="74.8" y1="396.6" x2="74.8" y2="416.9"/>
		<g>
			<path fill="#95C11F" d="M74.8,422.9c-1.1-2.8-2.9-6.4-4.8-8.5l4.8,1.7l4.8-1.7C77.7,416.5,75.9,420.1,74.8,422.9z"/>
		</g>
	</g>
</g>
<g>
	<g>
		<line fill="none" stroke="#95C11F" stroke-miterlimit="10" x1="74.8" y1="474.2" x2="74.8" y2="494.4"/>
		<g>
			<path fill="#95C11F" d="M74.8,500.4c-1.1-2.8-2.9-6.4-4.8-8.5l4.8,1.7l4.8-1.7C77.7,494.1,75.9,497.6,74.8,500.4z"/>
		</g>
	</g>
</g>
<line fill="none" stroke="#E30613" stroke-miterlimit="10" x1="157.3" y1="442.4" x2="157.3" y2="474"/>
<line fill="none" stroke="#E30613" stroke-miterlimit="10" x1="157.3" y1="474" x2="195" y2="474"/>
<rect x="401.2" y="446" fill="#FFFFFF" stroke="#000000" stroke-width="2" stroke-miterlimit="10" width="33.2" height="38.6"/>
<rect x="362.6" y="455.1" fill="none" width="110.4" height="25.3"/>
<text transform="matrix(0.781 0 0 1 405.6856 462.1972)"><tspan x="0" y="0" font-family="'MyriadPro-Regular'" font-size="10">Récept.</tspan><tspan x="1.7" y="12" font-family="'MyriadPro-Regular'" font-size="10">réseau</tspan></text>
<rect x="194.1" y="366.5" fill="none" stroke="#000000" stroke-width="2" stroke-miterlimit="10" width="33.2" height="38.6"/>
<rect x="157.3" y="375.6" fill="none" width="110.4" height="25.3"/>
<text transform="matrix(0.781 0 0 1 203.5048 382.6768)"><tspan x="0" y="0" font-family="'MyriadPro-Regular'" font-size="10">Envoi</tspan><tspan x="-2.2" y="12" font-family="'MyriadPro-Regular'" font-size="10">réseau</tspan></text>
<g>
	<g>
		<line fill="none" stroke="#E30613" stroke-miterlimit="10" x1="121.3" y1="362.9" x2="235.8" y2="362.9"/>
		<g>
			<path fill="#E30613" d="M241.8,362.9c-2.8,1.1-6.4,2.9-8.5,4.8l1.7-4.8l-1.7-4.8C235.5,360.1,239,361.9,241.8,362.9z"/>
		</g>
	</g>
</g>
<g>
	<g>
		<line fill="none" stroke="#E30613" stroke-miterlimit="10" x1="533.4" y1="313.5" x2="543.6" y2="313.5"/>
		<g>
			<path fill="#E30613" d="M549.6,313.5c-2.8,1.1-6.4,2.9-8.5,4.8l1.7-4.8l-1.7-4.8C543.3,310.7,546.8,312.5,549.6,313.5z"/>
		</g>
	</g>
</g>
<g>
	<g>
		<line fill="none" stroke="#E30613" stroke-miterlimit="10" x1="9.6" y1="14.3" x2="31.3" y2="14.3"/>
		<g>
			<path fill="#E30613" d="M37.3,14.3c-2.8,1.1-6.4,2.9-8.5,4.8l1.7-4.8l-1.7-4.8C31,11.5,34.5,13.3,37.3,14.3z"/>
		</g>
	</g>
</g>
<g>
	<g>
		<line fill="none" stroke="#2D2E83" stroke-miterlimit="10" x1="263.6" y1="14.3" x2="285.3" y2="14.3"/>
		<g>
			<path fill="#2D2E83" d="M291.3,14.3c-2.8,1.1-6.4,2.9-8.5,4.8l1.7-4.8l-1.7-4.8C285,11.5,288.5,13.3,291.3,14.3z"/>
		</g>
	</g>
</g>
<g>
	<g>
		<line fill="none" stroke="#95C11F" stroke-miterlimit="10" x1="131.6" y1="14.3" x2="153.4" y2="14.3"/>
		<g>
			<path fill="#95C11F" d="M159.4,14.3c-2.8,1.1-6.4,2.9-8.5,4.8l1.7-4.8l-1.7-4.8C153,11.5,156.6,13.3,159.4,14.3z"/>
		</g>
	</g>
</g>
<g>
	<g>
		<line fill="none" stroke="#312783" stroke-miterlimit="10" x1="640" y1="315.3" x2="650.3" y2="315.3"/>
		<g>
			<path fill="#312783" d="M656.3,315.3c-2.8,1.1-6.4,2.9-8.5,4.8l1.7-4.8l-1.7-4.8C649.9,312.5,653.5,314.3,656.3,315.3z"/>
		</g>
	</g>
</g>
<g>
	<g>
		<line fill="none" stroke="#312783" stroke-miterlimit="10" x1="737.2" y1="366.5" x2="761" y2="366.5"/>
		<g>
			<path fill="#312783" d="M767.1,366.5c-2.8,1.1-6.4,2.9-8.5,4.8l1.7-4.8l-1.7-4.8C760.7,363.6,764.2,365.4,767.1,366.5z"/>
		</g>
	</g>
</g>
<g>
	<g>
		<line fill="none" stroke="#312783" stroke-miterlimit="10" x1="622.3" y1="283" x2="622.3" y2="289.1"/>
		<g>
			<path fill="#312783" d="M622.3,295.1c-1.1-2.8-2.9-6.4-4.8-8.5l4.8,1.7l4.8-1.7C625.2,288.8,623.4,292.3,622.3,295.1z"/>
		</g>
	</g>
</g>
<g>
	<g>
		<line fill="none" stroke="#E30613" stroke-miterlimit="10" x1="324.6" y1="432.5" x2="344.3" y2="432.5"/>
		<g>
			<path fill="#E30613" d="M350.4,432.5c-2.8,1.1-6.4,2.9-8.5,4.8l1.7-4.8l-1.7-4.8C344,429.6,347.5,431.4,350.4,432.5z"/>
		</g>
	</g>
</g>
<g>
	<g>
		<line fill="none" stroke="#E30613" stroke-miterlimit="10" x1="227.3" y1="385.8" x2="445.5" y2="385.8"/>
		<g>
			<path fill="#E30613" d="M451.5,385.8c-2.8,1.1-6.4,2.9-8.5,4.8l1.7-4.8L443,381C445.2,382.9,448.7,384.7,451.5,385.8z"/>
		</g>
	</g>
</g>
<line fill="none" stroke="#E30613" stroke-miterlimit="10" x1="157.3" y1="362.9" x2="157.3" y2="394.5"/>
<line fill="none" stroke="#E30613" stroke-miterlimit="10" x1="157.3" y1="394.5" x2="195" y2="394.5"/>
<rect x="401.2" y="366.5" fill="#FFFFFF" stroke="#000000" stroke-width="2" stroke-miterlimit="10" width="33.2" height="38.6"/>
<rect x="362.6" y="375.6" fill="none" width="110.4" height="25.3"/>
<text transform="matrix(0.781 0 0 1 405.6856 382.6768)"><tspan x="0" y="0" font-family="'MyriadPro-Regular'" font-size="10">Récept.</tspan><tspan x="1.7" y="12" font-family="'MyriadPro-Regular'" font-size="10">réseau</tspan></text>
<rect x="194.1" y="296" fill="none" stroke="#000000" stroke-width="2" stroke-miterlimit="10" width="33.2" height="38.6"/>
<rect x="157.3" y="305.1" fill="none" width="110.4" height="25.3"/>
<text transform="matrix(0.781 0 0 1 203.5048 312.209)"><tspan x="0" y="0" font-family="'MyriadPro-Regular'" font-size="10">Envoi</tspan><tspan x="-2.2" y="12" font-family="'MyriadPro-Regular'" font-size="10">réseau</tspan></text>
<g>
	<g>
		<line fill="none" stroke="#E30613" stroke-miterlimit="10" x1="121.3" y1="292.5" x2="235.8" y2="292.5"/>
		<g>
			<path fill="#E30613" d="M241.8,292.5c-2.8,1.1-6.4,2.9-8.5,4.8l1.7-4.8l-1.7-4.8C235.5,289.6,239,291.4,241.8,292.5z"/>
		</g>
	</g>
</g>
<g>
	<g>
		<line fill="none" stroke="#E30613" stroke-miterlimit="10" x1="227.3" y1="315.3" x2="445.5" y2="315.3"/>
		<g>
			<path fill="#E30613" d="M451.5,315.3c-2.8,1.1-6.4,2.9-8.5,4.8l1.7-4.8l-1.7-4.8C445.2,312.5,448.7,314.3,451.5,315.3z"/>
		</g>
	</g>
</g>
<line fill="none" stroke="#E30613" stroke-miterlimit="10" x1="157.3" y1="292.5" x2="157.3" y2="324"/>
<line fill="none" stroke="#E30613" stroke-miterlimit="10" x1="157.3" y1="324" x2="195" y2="324"/>
<rect x="401.2" y="296" fill="#FFFFFF" stroke="#000000" stroke-width="2" stroke-miterlimit="10" width="33.2" height="38.6"/>
<rect x="362.6" y="305.1" fill="none" width="110.4" height="25.3"/>
<text transform="matrix(0.781 0 0 1 405.6856 312.209)"><tspan x="0" y="0" font-family="'MyriadPro-Regular'" font-size="10">Récept.</tspan><tspan x="1.7" y="12" font-family="'MyriadPro-Regular'" font-size="10">réseau</tspan></text>
<rect x="550.5" y="296" fill="#FFFFFF" stroke="#000000" stroke-width="2" stroke-miterlimit="10" width="33.2" height="38.6"/>
<rect x="605.7" y="296" fill="#FFFFFF" stroke="#000000" stroke-width="2" stroke-miterlimit="10" width="33.2" height="38.6"/>
<rect x="511.9" y="305.1" fill="none" width="110.4" height="25.3"/>
<text transform="matrix(0.781 0 0 1 554.9096 312.2089)"><tspan x="0" y="0" font-family="'MyriadPro-Regular'" font-size="10">analyse</tspan><tspan x="3.7" y="12" font-family="'MyriadPro-Regular'" font-size="10">audio</tspan></text>
<rect x="567.1" y="305.1" fill="none" width="110.4" height="25.3"/>
<text transform="matrix(0.781 0 0 1 614.8429 312.2089)"><tspan x="0" y="0" font-family="'MyriadPro-Regular'" font-size="10">effet</tspan><tspan x="-2.1" y="12" font-family="'MyriadPro-Regular'" font-size="10">vidéo</tspan></text>
<rect x="605.7" y="244.3" fill="#FFFFFF" stroke="#000000" stroke-width="2" stroke-miterlimit="10" width="33.2" height="38.6"/>
<rect x="567.1" y="253.4" fill="none" width="110.4" height="25.3"/>
<text transform="matrix(0.781 0 0 1 614.8429 260.5341)"><tspan x="0" y="0" font-family="'MyriadPro-Regular'" font-size="10">effet</tspan><tspan x="-2.1" y="12" font-family="'MyriadPro-Regular'" font-size="10">vidéo</tspan></text>
<rect x="194.1" y="520.6" fill="none" stroke="#000000" stroke-width="2" stroke-miterlimit="10" width="33.2" height="38.6"/>
<rect x="157.3" y="529.7" fill="none" width="110.4" height="25.3"/>
<text transform="matrix(0.781 0 0 1 203.5048 536.8369)"><tspan x="0" y="0" font-family="'MyriadPro-Regular'" font-size="10">Envoi</tspan><tspan x="-2.2" y="12" font-family="'MyriadPro-Regular'" font-size="10">réseau</tspan></text>
<g>
	<g>
		<line fill="none" stroke="#E30613" stroke-miterlimit="10" x1="121.3" y1="517.1" x2="235.8" y2="517.1"/>
		<g>
			<path fill="#E30613" d="M241.8,517.1c-2.8,1.1-6.4,2.9-8.5,4.8l1.7-4.8l-1.7-4.8C235.5,514.2,239,516,241.8,517.1z"/>
		</g>
	</g>
</g>
<g>
	<g>
		<line fill="none" stroke="#E30613" stroke-miterlimit="10" x1="227.3" y1="540" x2="445.5" y2="540"/>
		<g>
			<path fill="#E30613" d="M451.5,540c-2.8,1.1-6.4,2.9-8.5,4.8l1.7-4.8l-1.7-4.8C445.2,537.1,448.7,538.9,451.5,540z"/>
		</g>
	</g>
</g>
<line fill="none" stroke="#E30613" stroke-miterlimit="10" x1="157.3" y1="517.1" x2="157.3" y2="548.7"/>
<line fill="none" stroke="#E30613" stroke-miterlimit="10" x1="157.3" y1="548.7" x2="195" y2="548.7"/>
<rect x="401.2" y="520.6" fill="#FFFFFF" stroke="#000000" stroke-width="2" stroke-miterlimit="10" width="33.2" height="38.6"/>
<rect x="362.6" y="529.7" fill="none" width="110.4" height="25.3"/>
<text transform="matrix(0.781 0 0 1 405.6856 536.8369)"><tspan x="0" y="0" font-family="'MyriadPro-Regular'" font-size="10">Récept.</tspan><tspan x="1.7" y="12" font-family="'MyriadPro-Regular'" font-size="10">réseau</tspan></text>
<rect x="52.3" y="11.7" fill="none" width="84" height="21.3"/>
<text transform="matrix(1 0 0 1 52.3434 18.7666)" font-family="'MyriadPro-Regular'" font-size="10">flux audio</text>
<rect x="176.2" y="11.7" fill="none" width="84" height="21.3"/>
<text transform="matrix(1 0 0 1 176.1633 18.7666)" font-family="'MyriadPro-Regular'" font-size="10">flux de controle</text>
<rect x="302.2" y="11.7" fill="none" width="84" height="21.3"/>
<text transform="matrix(1 0 0 1 302.1633 18.7666)" font-family="'MyriadPro-Regular'" font-size="10">flux vidéo</text>
</svg>
